<svg xmlns="http://www.w3.org/2000/svg" width="108" height="108" viewBox="0 0 108 108">
  <g id="Group_709" data-name="Group 709" transform="translate(-929 -1137)">
    <circle id="Ellipse_32" data-name="Ellipse 32" cx="54" cy="54" r="54" transform="translate(929 1137)" fill="#f0fffd"/>
    <g id="safe-box" transform="translate(955 1170)">
      <circle id="Ellipse_36" data-name="Ellipse 36" cx="2.328" cy="2.328" r="2.328" transform="translate(25.969 14.744)" fill="#57f2de"/>
      <path id="Path_908" data-name="Path 908" d="M121.044,88h-23.9A1.147,1.147,0,0,0,96,89.146v25.208a1.147,1.147,0,0,0,1.146,1.146h23.9a1.147,1.147,0,0,0,1.146-1.146V89.146A1.147,1.147,0,0,0,121.044,88Zm-19.151,20.3a1.31,1.31,0,1,1-2.619,0v-5.238a1.31,1.31,0,0,1,2.619,0Zm7.2-5.238a5.238,5.238,0,1,1,5.238-5.238A5.244,5.244,0,0,1,109.1,103.059Z" transform="translate(-80.798 -80.798)" fill="#57f2de"/>
      <path id="Path_909" data-name="Path 909" d="M452.174,240h-3.765a.409.409,0,0,0-.409.409v1.8a.409.409,0,0,0,.409.409h3.765a.409.409,0,0,0,.409-.409v-1.8A.409.409,0,0,0,452.174,240Z" transform="translate(-403.989 -220.357)" fill="#57f2de"/>
      <path id="Path_910" data-name="Path 910" d="M448.409,163.928h3.765a.409.409,0,0,0,.409-.409v-3.11a.409.409,0,0,0-.409-.409h-3.765a.409.409,0,0,0-.409.409v3.11A.409.409,0,0,0,448.409,163.928Z" transform="translate(-403.989 -146.905)" fill="#57f2de"/>
      <path id="Path_911" data-name="Path 911" d="M44.011,31.837v1.719a3.765,3.765,0,0,1-3.765,3.765h-23.9a3.765,3.765,0,0,1-3.765-3.765V8.348a3.765,3.765,0,0,1,3.765-3.765h23.9a3.765,3.765,0,0,1,3.765,3.765v1.719a.409.409,0,0,0,.409.409h3.765a.409.409,0,0,0,.409-.409v-6.3A3.765,3.765,0,0,0,44.83,0H11.765A3.765,3.765,0,0,0,8,3.765V38.139A3.765,3.765,0,0,0,11.765,41.9H44.83a3.765,3.765,0,0,0,3.765-3.765v-6.3a.409.409,0,0,0-.409-.409H44.421A.409.409,0,0,0,44.011,31.837Z" fill="#57f2de"/>
      <path id="Path_912" data-name="Path 912" d="M452.174,304h-3.765a.409.409,0,0,0-.409.409v3.11a.409.409,0,0,0,.409.409h3.765a.409.409,0,0,0,.409-.409v-3.11A.409.409,0,0,0,452.174,304Z" transform="translate(-403.989 -279.119)" fill="#57f2de"/>
    </g>
  </g>
</svg>
