<svg xmlns="http://www.w3.org/2000/svg" width="108" height="108" viewBox="0 0 108 108">
  <g id="Group_720" data-name="Group 720" transform="translate(-329 -1395)">
    <circle id="Ellipse_35" data-name="Ellipse 35" cx="54" cy="54" r="54" transform="translate(329 1395)" fill="#fdf0ff"/>
    <g id="Group_719" data-name="Group 719" transform="translate(-0.485 -4.66)">
      <path id="Path_913" data-name="Path 913" d="M138.662,46.538l26.676-.113V64.492l-14.692.062v3.251H165.45a3.2,3.2,0,0,0,3.2-3.2V46.425a3.2,3.2,0,0,0-3.2-3.2H138.662a3.2,3.2,0,0,0-3.2,3.2v5.69H138.7Z" transform="translate(236.075 1389.436)" fill="#e647ff"/>
      <path id="Path_914" data-name="Path 914" d="M301.583,287.593H281.842v3.785h18.046a2.74,2.74,0,0,0,2.74-2.74A1.045,1.045,0,0,0,301.583,287.593Z" transform="translate(104.878 1170.415)" fill="#e647ff"/>
      <path id="Path_915" data-name="Path 915" d="M94.356,152.894H82.719a3.449,3.449,0,0,0-3.445,3.445v4.789h1.888a4.115,4.115,0,0,1,1.426.268v-5.057a.131.131,0,0,1,.131-.131H94.356a.131.131,0,0,1,.131.131v16.152H85.308v4.684h9.048a3.449,3.449,0,0,0,3.445-3.445V156.339A3.449,3.449,0,0,0,94.356,152.894Zm-5.819,22.767a1.074,1.074,0,0,1-.953-.6,1.057,1.057,0,0,1-.129-.486,1.083,1.083,0,0,1,2.165,0,1.056,1.056,0,0,1-.129.486A1.074,1.074,0,0,1,88.537,175.661Z" transform="translate(286.434 1291.142)" fill="#e647ff"/>
      <path id="Path_916" data-name="Path 916" d="M10.111,252.245H2.074A2.077,2.077,0,0,0,0,254.32v15.223a2.076,2.076,0,0,0,2.074,2.074h8.037a2.077,2.077,0,0,0,2.074-2.074V254.32A2.077,2.077,0,0,0,10.111,252.245ZM2.485,254.73H9.7v13.159H2.485Zm3.608,15.879a.891.891,0,1,1,.586-.235A.868.868,0,0,1,6.094,270.609Z" transform="translate(357.485 1202.096)" fill="#e647ff"/>
    </g>
  </g>
</svg>
