<svg xmlns="http://www.w3.org/2000/svg" width="108" height="108" viewBox="0 0 108 108">
  <g id="Group_712" data-name="Group 712" transform="translate(-930 -1395)">
    <circle id="Ellipse_33" data-name="Ellipse 33" cx="54" cy="54" r="54" transform="translate(930 1395)" fill="#fff0f0"/>
    <g id="Group_677" data-name="Group 677" transform="translate(315 348)">
      <g id="Group_676" data-name="Group 676" transform="translate(642 1074)">
        <path id="Path_919" data-name="Path 919" d="M20.15,14.89H37.627a7.609,7.609,0,0,1,7.631,7.57v10.3h.714a7.521,7.521,0,0,0,7.589-7.433,7.324,7.324,0,0,0-2.026-5.055,7.606,7.606,0,0,0-3.556-2.114,11.364,11.364,0,0,0-2.834-6.235A11.82,11.82,0,0,0,39.28,8.371a9.749,9.749,0,0,0-19.263-.255,11.789,11.789,0,0,0-6.676,3.307,11.329,11.329,0,0,0-3.272,6.467H7.589a7.435,7.435,0,1,0,0,14.866h4.93V22.46a7.609,7.609,0,0,1,7.631-7.57Z" fill="#ff5959"/>
        <path id="Path_920" data-name="Path 920" d="M331.136,341.917H327.71a4.967,4.967,0,0,0-5,4.927v3.139h-.552a1.569,1.569,0,0,0-1.2,2.58l5.548,6.588a1.569,1.569,0,0,0,2.4,0l5.548-6.588a1.569,1.569,0,0,0-1.2-2.58h-.552v-6.5a1.569,1.569,0,0,0-1.569-1.569Z" transform="translate(-287.055 -306.149)" fill="#ff5959"/>
        <path id="Path_921" data-name="Path 921" d="M175.342,175.867v10.265a8.37,8.37,0,0,0-1.468-.13,8.212,8.212,0,0,0-4.214,1.153l-8.753-7.277a1.176,1.176,0,0,0-1.927.9v14.583a1.175,1.175,0,0,0,1.926.9l5.054-4.2a7.843,7.843,0,0,0-.226,1.377c-.015.2-.022.394-.022.594q0,.355.031.7v.195a4.6,4.6,0,0,0-1.039,6.838l1.122,1.333H153.268a4.573,4.573,0,0,1-4.6-4.537v-22.7a4.573,4.573,0,0,1,4.6-4.537h17.476A4.573,4.573,0,0,1,175.342,175.867Z" transform="translate(-133.117 -153.407)" fill="#ff5959"/>
      </g>
    </g>
  </g>
</svg>
