<svg xmlns="http://www.w3.org/2000/svg" width="265.229" height="215.63" viewBox="0 0 265.229 215.63">
  <g id="Group_754" data-name="Group 754" transform="translate(-1740.605 -582.616)">
    <g id="Group_751" data-name="Group 751" transform="translate(1816.313 582.616)">
      <g id="Group_749" data-name="Group 749" transform="translate(0)">
        <g id="Group_748" data-name="Group 748">
          <rect id="Rectangle_419" data-name="Rectangle 419" width="9.831" height="98.941" transform="translate(51.343 113.342)" fill="#6675ff"/>
          <rect id="Rectangle_420" data-name="Rectangle 420" width="9.87" height="3.421" transform="translate(51.304 113.379)" fill="#495bff"/>
          <path id="Path_944" data-name="Path 944" d="M2287.945,615.951v47.144l-33.335,33.335h-47.144l-33.335-33.335V615.951l33.335-33.335h47.144Z" transform="translate(-2174.13 -582.616)" fill="#6675ff"/>
          <path id="Path_945" data-name="Path 945" d="M2340.08,688.023v47.144L2306.744,768.5H2259.6l-22.3-22.3c83.828,12.354,84.7-76.261,84.7-76.261Z" transform="translate(-2226.265 -654.688)" fill="#495bff"/>
          <path id="Path_946" data-name="Path 946" d="M2445.5,908.485s-16.026,59.506-80.479,56.907h47.144l33.335-33.335Z" transform="translate(-2331.685 -851.578)" fill="#495bff"/>
          <path id="Path_947" data-name="Path 947" d="M2308.556,644.384v42.561l-30.1,30.1H2235.9l-30.1-30.1V644.384l30.1-30.1h42.562Z" transform="translate(-2200.272 -608.758)" fill="none" stroke="#fff" stroke-miterlimit="10" stroke-width="5"/>
          <rect id="Rectangle_421" data-name="Rectangle 421" width="3.947" height="97.941" transform="translate(57.227 114.342)" fill="#495bff"/>
        </g>
      </g>
      <g id="Group_750" data-name="Group 750" transform="translate(23.618 42.798)">
        <path id="Path_948" data-name="Path 948" d="M2330.078,845.589a5.8,5.8,0,0,0-2.352-.4h-.616v-14.1c0-2.248-1-3.388-2.982-3.388a2.272,2.272,0,0,0-1.607.629,15.125,15.125,0,0,0-1.6,1.9l-9.779,13.081q-.406.536-.683.9c-.187.25-.369.51-.542.775a3.856,3.856,0,0,0-.406.794,2.267,2.267,0,0,0-.14.77,2.948,2.948,0,0,0,.935,2.291,3.992,3.992,0,0,0,2.749.839h9.085v3.255a3.227,3.227,0,0,0,.682,2.213,2.527,2.527,0,0,0,3.613.019,3.245,3.245,0,0,0,.674-2.232v-3.255h.948a3.872,3.872,0,0,0,2.205-.521,1.941,1.941,0,0,0,.777-1.7A1.829,1.829,0,0,0,2330.078,845.589Zm-7.936-10.408v10h-7.4Z" transform="translate(-2309.373 -827.694)" fill="#fff"/>
        <path id="Path_949" data-name="Path 949" d="M2461.278,831.018a8.086,8.086,0,0,0-2.782-1.849,9.46,9.46,0,0,0-3.516-.631,8.433,8.433,0,0,0-8.284,5.556,16.8,16.8,0,0,0-.933,3.879,38.885,38.885,0,0,0-.3,5.042,28.463,28.463,0,0,0,.269,4.039,16.575,16.575,0,0,0,.851,3.427,9.873,9.873,0,0,0,3.411,4.47,9,9,0,0,0,9.65.414,9.286,9.286,0,0,0,3.312-3.424,12.343,12.343,0,0,0,1.385-4.006,31.956,31.956,0,0,0,.372-5.233,21.431,21.431,0,0,0-1.419-8.692A10.566,10.566,0,0,0,2461.278,831.018Zm-9.98,17.114a32.482,32.482,0,0,1-.4-5.651,22.3,22.3,0,0,1,.938-7.5,3.226,3.226,0,0,1,3.22-2.341,3.189,3.189,0,0,1,2.523,1.037,6.671,6.671,0,0,1,1.325,3.164,30.75,30.75,0,0,1,.4,5.493,34.388,34.388,0,0,1-.385,5.726,7.189,7.189,0,0,1-1.31,3.3,3.388,3.388,0,0,1-4.985.043A7,7,0,0,1,2451.3,848.133Z" transform="translate(-2421.699 -828.391)" fill="#fff"/>
        <path id="Path_950" data-name="Path 950" d="M2587.259,845.589a5.8,5.8,0,0,0-2.352-.4h-.616v-14.1c0-2.248-1-3.388-2.982-3.388a2.273,2.273,0,0,0-1.607.629,15.133,15.133,0,0,0-1.6,1.9l-9.779,13.081q-.406.536-.683.9c-.187.25-.369.51-.542.775a3.868,3.868,0,0,0-.406.794,2.278,2.278,0,0,0-.139.77,2.948,2.948,0,0,0,.935,2.291,3.992,3.992,0,0,0,2.749.839h9.085v3.255a3.227,3.227,0,0,0,.682,2.213,2.528,2.528,0,0,0,3.613.019,3.246,3.246,0,0,0,.673-2.232v-3.255h.948a3.871,3.871,0,0,0,2.205-.521,1.942,1.942,0,0,0,.777-1.7A1.83,1.83,0,0,0,2587.259,845.589Zm-7.936-10.408v10h-7.4Z" transform="translate(-2521.642 -827.694)" fill="#fff"/>
      </g>
    </g>
    <g id="Group_752" data-name="Group 752" transform="translate(1740.605 794.593)">
      <rect id="Rectangle_422" data-name="Rectangle 422" width="150.104" height="3.653" rx="1.826" transform="translate(56.75)" fill="#495bff"/>
      <rect id="Rectangle_423" data-name="Rectangle 423" width="27.325" height="3.653" rx="1.826" transform="translate(35.803)" fill="#495bff"/>
      <rect id="Rectangle_424" data-name="Rectangle 424" width="28.526" height="3.653" rx="1.826" transform="translate(0)" fill="#495bff"/>
      <rect id="Rectangle_425" data-name="Rectangle 425" width="24.062" height="3.653" rx="1.826" transform="translate(214.422)" fill="#495bff"/>
      <rect id="Rectangle_426" data-name="Rectangle 426" width="19.163" height="3.653" rx="1.826" transform="translate(246.066)" fill="#495bff"/>
    </g>
    <g id="Group_753" data-name="Group 753" transform="translate(1790.902 708.49)">
      <path id="Path_951" data-name="Path 951" d="M2140.937,1382.571h-51.718l.941-3.407,1.838-6.652,1.113-4.028,1.641-5.939,3.163-11.448,1.641-5.938,11.534-41.749h7.979l4.227,15.3,7.307,26.448,1.641,5.938,3.163,11.448,1.641,5.939,2.95,10.68Z" transform="translate(-2078.637 -1303.41)" fill="#6675ff"/>
      <path id="Path_952" data-name="Path 952" d="M2140.937,1454.886h-51.718l.941-3.407,1.838-6.652c36.04-2.129,31.3-53.8,31.3-53.8l16.7,60.453Z" transform="translate(-2078.637 -1375.725)" fill="#495bff"/>
      <rect id="Rectangle_427" data-name="Rectangle 427" width="72.882" height="6.929" transform="translate(0 79.161)" fill="#6675ff"/>
      <path id="Path_953" data-name="Path 953" d="M2140.937,1740.608h-51.718l.941-3.407H2140Z" transform="translate(-2078.637 -1661.448)" fill="#495bff"/>
      <path id="Path_954" data-name="Path 954" d="M2206.346,1576.483s-1.083,22.857-27.344,28.085l35.1-.019Z" transform="translate(-2152.741 -1528.796)" fill="#6675ff"/>
      <path id="Path_955" data-name="Path 955" d="M2173.338,1548.416H2139.01l1.641-5.938H2171.7Z" transform="translate(-2119.733 -1500.728)" fill="#fff"/>
      <path id="Path_956" data-name="Path 956" d="M2155.438,1647.976H2111.5l1.641-5.939H2153.8Z" transform="translate(-2097.03 -1582.902)" fill="#fff"/>
      <path id="Path_957" data-name="Path 957" d="M2134.661,1756.71s-9.661,7.293-45.442,6.929h62.3v-6.929Z" transform="translate(-2078.637 -1677.549)" fill="#495bff"/>
    </g>
  </g>
</svg>
