<svg xmlns="http://www.w3.org/2000/svg" width="108" height="108" viewBox="0 0 108 108">
  <g id="Group_703" data-name="Group 703" transform="translate(-328 -1136)">
    <circle id="Ellipse_30" data-name="Ellipse 30" cx="54" cy="54" r="54" transform="translate(328 1136)" fill="#f0f1ff"/>
    <g id="Group_675" data-name="Group 675" transform="translate(364 1164)">
      <g id="Group_674" data-name="Group 674" transform="translate(0 0)">
        <path id="Path_901" data-name="Path 901" d="M215.445,5.255A.851.851,0,0,0,216.3,4.4V1.852a.851.851,0,1,0-1.7,0V4.4A.851.851,0,0,0,215.445,5.255Z" transform="translate(-200.953 -1.001)" fill="#535fff"/>
        <path id="Path_902" data-name="Path 902" d="M122.19,88.035h2.535a.851.851,0,0,0,0-1.7H122.19a.851.851,0,0,0,0,1.7Z" transform="translate(-116.995 -77.827)" fill="#535fff"/>
        <path id="Path_903" data-name="Path 903" d="M273.936,87.185a.851.851,0,0,0,.851.851h2.535a.851.851,0,0,0,0-1.7h-2.535A.851.851,0,0,0,273.936,87.185Z" transform="translate(-254.379 -77.827)" fill="#535fff"/>
        <path id="Path_904" data-name="Path 904" d="M257.831,30.007a.849.849,0,0,0,.6-.251l1.69-1.7a.851.851,0,0,0-1.207-1.2l-1.69,1.7a.851.851,0,0,0,.6,1.45Z" transform="translate(-239.113 -24.052)" fill="#535fff"/>
        <path id="Path_905" data-name="Path 905" d="M148.711,29.747a.851.851,0,0,0,1.207-1.2l-1.69-1.7a.851.851,0,0,0-1.207,1.2Z" transform="translate(-139.894 -24.043)" fill="#535fff"/>
        <path id="Path_906" data-name="Path 906" d="M109.676,77.748a3.8,3.8,0,0,0-2.127.647v-.221a3.827,3.827,0,0,0-5.955-3.182V74.77a3.827,3.827,0,0,0-5.95-3.185V64.647a3.811,3.811,0,1,0-7.619,0l0,16.814c-1.809-2.619-5.383-3.92-8.114-2.854a5.192,5.192,0,0,0-1.029.565,2.226,2.226,0,0,0-1.1,2.089c-.077.445.029.572,1.04,1.781a51.709,51.709,0,0,1,5.737,8.008c.054.087.872,1.372,2.025,2.932a.826.826,0,0,1,.347.236,33.766,33.766,0,0,0,3.46,2.566c.9.619,1.607,1.109,1.936,1.382a.851.851,0,1,1-1.089,1.308c-.271-.225-1.02-.742-1.813-1.289l-.59-.408-.007,1.249c0,4,3.146,6.8,7.652,6.8h7.607c3.528,0,6.347-2.068,7.014-5.147.071-.329.146-.6.22-.831-1.2.429-2.307.738-2.7.845a.869.869,0,0,1-.221.029.851.851,0,0,1-.221-1.673,28.652,28.652,0,0,0,4.428-1.567,11.323,11.323,0,0,0,.9-4.586V81.576A3.833,3.833,0,0,0,109.676,77.748Z" transform="translate(-77.766 -54.778)" fill="#535fff"/>
      </g>
    </g>
  </g>
</svg>
