<svg xmlns="http://www.w3.org/2000/svg" width="108" height="108" viewBox="0 0 108 108">
  <g id="Group_716" data-name="Group 716" transform="translate(-623 -1395)">
    <circle id="Ellipse_34" data-name="Ellipse 34" cx="54" cy="54" r="54" transform="translate(623 1395)" fill="#f1fff0"/>
    <g id="Group_715" data-name="Group 715" transform="translate(-0.67 -1.094)">
      <path id="Path_917" data-name="Path 917" d="M6.543,12.473A8.787,8.787,0,0,1,15.321,3.7H32.2A5.071,5.071,0,0,0,27.331,0H6.081A5.086,5.086,0,0,0,1,5.081V33.723A5.086,5.086,0,0,0,6.081,38.8h.462Z" transform="translate(655.67 1428.094)" fill="#4dff40"/>
      <path id="Path_918" data-name="Path 918" d="M32.331,4H11.081A5.086,5.086,0,0,0,6,9.081V35.875a5.086,5.086,0,0,0,5.081,5.081h21.25a5.086,5.086,0,0,0,5.081-5.081V9.081A5.086,5.086,0,0,0,32.331,4Zm-3.7,31.413H14.777a1.386,1.386,0,1,1,0-2.772H28.636a1.386,1.386,0,1,1,0,2.772Zm0-7.391H14.777a1.386,1.386,0,1,1,0-2.772H28.636a1.386,1.386,0,1,1,0,2.772Zm0-6.467H14.777a1.386,1.386,0,1,1,0-2.772H28.636a1.386,1.386,0,1,1,0,2.772Zm0-7.391H14.777a1.386,1.386,0,1,1,0-2.772H28.636a1.386,1.386,0,1,1,0,2.772Z" transform="translate(659.909 1431.485)" fill="#4dff40"/>
    </g>
  </g>
</svg>
