<svg xmlns="http://www.w3.org/2000/svg" width="108" height="108" viewBox="0 0 108 108">
  <g id="Group_706" data-name="Group 706" transform="translate(-623 -1137)">
    <circle id="Ellipse_31" data-name="Ellipse 31" cx="54" cy="54" r="54" transform="translate(623 1137)" fill="#fffcf0"/>
    <path id="Path_907" data-name="Path 907" d="M42.48,158.324a13.745,13.745,0,0,0,0-27.491c-3.23,0-7.095,1.891-11.815,5.781l-.069.057,5.7,5.722c4.356-3.484,6.113-3.526,6.188-3.526a5.711,5.711,0,1,1,0,11.423c-.078,0-1.971-.045-6.706-3.947-.548-.451-9.435-9.087-10.214-9.728-4.721-3.89-8.586-5.781-11.815-5.781a13.745,13.745,0,1,0,0,27.491c3.23,0,7.095-1.891,11.815-5.781l.064-.053-5.678-5.737c-4.365,3.494-6.126,3.537-6.2,3.537a5.711,5.711,0,1,1,0-11.423c.078,0,2.17-.2,6.645,3.9,2.283,2.092,9.707,9.342,10.275,9.779,4.851,3.727,8.586,5.781,11.815,5.781Z" transform="translate(648 1046.167)" fill="#ffd322"/>
  </g>
</svg>
