<svg xmlns="http://www.w3.org/2000/svg" xmlns:xlink="http://www.w3.org/1999/xlink" width="306.056" height="199.505" viewBox="0 0 306.056 199.505">
  <defs>
    <clipPath id="clip-path">
      <path id="Path_841" data-name="Path 841" d="M852.267,1204.805c2.06-7.523,3.128-15.219-1.54-20.343-2.109-2.314-5.865-3.925-8.939-5.071-6-2.235-12.126-5.239-18.545-6.213-6.767-1.027-14.293-1.66-21.038-.191a54.392,54.392,0,0,0-12.122,4.522c-5.142,2.5-8.8,4.181-10.454,9.323a86.707,86.707,0,0,0-3.561,17.456c-1.814,17.243.586,34.53.528,51.782a9.833,9.833,0,0,0,.881,4.984c1.7,3.006,6.311,3.048,9.635,3.043l32.861-.049a64.888,64.888,0,0,1,12.318,1.233,7.891,7.891,0,0,0,8.419-3.818c1.635-2.735,1.76-5.929,1.935-9a169.5,169.5,0,0,1,5.868-35.508C849.427,1213.653,851.025,1209.34,852.267,1204.805Z" transform="translate(-775.39 -1172.121)" fill="#6675ff"/>
    </clipPath>
    <clipPath id="clip-path-2">
      <path id="Path_875" data-name="Path 875" d="M1580.11,947.731c-1.859-.011-3.663-.25-4.937-2.073-2.5-3.579-6.314-6.793-10.593-3.153-2.467,2.1-.612,6.418-2.736,8.5-1.878,1.837-4.266,1.533-5.227,4.582-1.413,4.486,3.04,8.416,4.47,12.294,1.2,3.255-1.5,4.5-2.711,7.032a6.4,6.4,0,0,0,.564,5.919c1.8,3.3,5.777,5.95,4.855,10.218-.77,3.562-1.486,6.737,1.658,9.437,2.154,1.851,6.153,3.537,5.848,6.963-.108,1.212-.947,2.245-1.177,3.441-.364,1.891.861,3.732,2.284,5.03a48.612,48.612,0,0,1,8.505,9.455c1.036,1.588,5.184,5.173,3.526,7.344,3.013-3.946,6.2-7.773,8.936-11.921,2.252-3.412,5.647-8.4,3.336-12.6-.719-1.307-2.055-2.281-2.422-3.727-.661-2.611,1.9-5.032,2.858-7.254a9.326,9.326,0,0,0-2.239-10.157c-1.248-1.239-2.6-2.6-2.786-4.35-.2-1.91,1-3.69,1.54-5.452a27.167,27.167,0,0,0,1-5.037,10.482,10.482,0,0,0-.1-3.575c-.533-2.215-2.528-3.447-4-5.019-3.516-3.742-1.668-8.143-3.2-12.492C1585.972,947.222,1582.976,947.748,1580.11,947.731Z" transform="translate(-1556.345 -940.902)" fill="#3dc8e8"/>
    </clipPath>
    <clipPath id="clip-path-3">
      <path id="Path_884" data-name="Path 884" d="M1726.387,1126.032a3.979,3.979,0,0,0,3.868-.821c2.308-2.25,5.521-4.053,8.12-.821,1.5,1.864-.444,4.74.809,6.541,1.108,1.592,2.882,1.7,3.157,4.047.4,3.449-3.37,5.683-4.944,8.3-1.321,2.195.465,3.468.993,5.476a4.728,4.728,0,0,1-1.229,4.216c-1.759,2.142-5.014,3.516-4.936,6.74.065,2.691.145,5.093-2.508,6.616-1.819,1.044-4.953,1.714-5.206,4.241-.089.894.376,1.76.377,2.658a4.269,4.269,0,0,1-2.353,3.333,35.9,35.9,0,0,0-7.478,5.681c-.971,1.008-4.477,3.035-3.574,4.839-1.64-3.279-3.42-6.5-4.832-9.884-1.161-2.787-2.933-6.876-.675-9.6.7-.848,1.807-1.37,2.273-2.368.841-1.8-.685-3.914-1.069-5.657a6.887,6.887,0,0,1,3.03-7.058,5.765,5.765,0,0,0,2.623-2.77c.409-1.358-.213-2.815-.363-4.168a20.077,20.077,0,0,1-.025-3.792,7.731,7.731,0,0,1,.568-2.579c.693-1.533,2.311-2.151,3.6-3.086,3.068-2.228,2.337-5.676,4.053-8.618C1722.205,1124.851,1724.305,1125.647,1726.387,1126.032Z" transform="translate(-1704.887 -1122.634)" fill="#26a8d1"/>
    </clipPath>
  </defs>
  <g id="Group_657" data-name="Group 657" transform="translate(-115.123 -547.868)">
    <path id="Path_834" data-name="Path 834" d="M817.187,965.78c-5.427,5.583-.5,19.226,8.15,17.252,9.3-2.122,7.9-16.613-.509-18.992A7.35,7.35,0,0,0,817.187,965.78Z" transform="translate(-581.571 -344.807)" fill="#9b87ff"/>
    <path id="Path_835" data-name="Path 835" d="M840.514,798.96a15.485,15.485,0,0,1-7.307,4.2c-5.419,1.239-10.508-1.146-15.027-3.894-4.83-2.936-9.647-5.911-14.2-9.262-3.257-2.4-6.592-4.943-8.622-8.523-2.353-4.152-2.491-9.143-2.011-13.778.328-3.165-1.149-6.005-1.8-9.023-1.266-5.874.03-12.81,5.509-16.179,2.8-1.72,5.722-1.465,8.666-.2,2.255.969,4.358,2.317,6.719,2.988,5.027,1.428,10.479-.538,15.4-1.551,3.565-.734,7.464-1.117,10.98.059,3.914,1.31,5.776,4.173,7.913,7.487,1.827,2.833,4.6,4.97,6.8,7.49a13.218,13.218,0,0,1,2.861,12c-1.461,6.385-5.134,11.874-8.323,17.476C846.038,791.825,843.657,795.917,840.514,798.96Z" transform="translate(-561.777 -159.991)" fill="#0b2d4e"/>
    <path id="Path_836" data-name="Path 836" d="M638.916,1260.562c6.507-10.027,10.556-22.334,4.9-33.656-.573-1.147-1.262-2.4-2.479-2.8-2.618-.87-6.168.066-8.444,1.4-7.9,4.632-12.727,13.349-17.162,21.105-4.608,8.058-8.61,16.446-13.241,24.491a44.932,44.932,0,0,0-4.776,10.183,16.108,16.108,0,0,0,.224,9.911c5.2,13.424,19.493-3.019,23.843-7.987A198.6,198.6,0,0,0,638.916,1260.562Z" transform="translate(-400.507 -560.966)" fill="#6675ff"/>
    <path id="Path_837" data-name="Path 837" d="M858.137,899.11a8.507,8.507,0,0,1-2.428,1.826,10.6,10.6,0,0,1-7.743.341A25.089,25.089,0,0,1,841,897.533c-5.846-4.131-13.078-9.6-16.557-15.947-2.145-3.914-3.736-8.535-1.684-12.807a11.924,11.924,0,0,1,9.447-6.768,1.886,1.886,0,0,1,.992.1,1.994,1.994,0,0,1,.764.828c1.479,2.428,2.659,5.073,4.466,7.287a26.648,26.648,0,0,0,7.05,5.819c4.286,2.6,8.992,4.519,13.024,7.5,2.912,2.152,2.988,7,2.279,10.356A11,11,0,0,1,858.137,899.11Z" transform="translate(-587.3 -260.309)" fill="#061f33"/>
    <g id="Group_631" data-name="Group 631" transform="translate(226.667 654.074)">
      <path id="Path_838" data-name="Path 838" d="M852.267,1204.805c2.06-7.523,3.128-15.219-1.54-20.343-2.109-2.314-5.865-3.925-8.939-5.071-6-2.235-12.126-5.239-18.545-6.213-6.767-1.027-14.293-1.66-21.038-.191a54.392,54.392,0,0,0-12.122,4.522c-5.142,2.5-8.8,4.181-10.454,9.323a86.707,86.707,0,0,0-3.561,17.456c-1.814,17.243.586,34.53.528,51.782a9.833,9.833,0,0,0,.881,4.984c1.7,3.006,6.311,3.048,9.635,3.043l32.861-.049a64.888,64.888,0,0,1,12.318,1.233,7.891,7.891,0,0,0,8.419-3.818c1.635-2.735,1.76-5.929,1.935-9a169.5,169.5,0,0,1,5.868-35.508C849.427,1213.653,851.025,1209.34,852.267,1204.805Z" transform="translate(-775.39 -1172.121)" fill="#7a87ff"/>
      <g id="Group_630" data-name="Group 630" clip-path="url(#clip-path)">
        <path id="Path_839" data-name="Path 839" d="M933.053,1167.7c2.319-3.74,2.845-8.414-.192-12.018-1.389-1.648-3.845-1.833-5.945-1.87a52.036,52.036,0,0,0-12.3,1.25c-3.837.861-7.751,2.319-9.413,6.035a8.965,8.965,0,0,0,.823,8.48,10.879,10.879,0,0,0,6.664,4.616,24,24,0,0,0,13.8-.824A14.236,14.236,0,0,0,933.053,1167.7Z" transform="translate(-882.677 -1156.897)" fill="#8c49c7"/>
        <path id="Path_840" data-name="Path 840" d="M803.5,1439.456a53.327,53.327,0,0,0,14.036,3.931,191.9,191.9,0,0,0,40.793,2.07c2.913-.139,6.072-.429,8.221-2.4a11.342,11.342,0,0,0,2.888-5.73c1.825-7.164,1.8-14.652,1.761-22.045q-.044-8.652-.088-17.3c-.01-2.008,1.294-14.232-1.83-14.093a1.771,1.771,0,0,0-.92.385c-1.554,1.112-2.353,2.973-3.079,4.741-2.277,5.541-4.189,14.411-8.928,18.29-4.977,4.074-10.711,5.971-16.743,7.925-10.46,3.387-22.13,4.859-30.989,11.834-1.475,1.162-2.882,2.449-4.248,3.738-1.23,1.161-2.917,2.362-3.653,3.984C799.571,1437.309,801.371,1438.454,803.5,1439.456Z" transform="translate(-796.143 -1348.108)" fill="#6675ff"/>
      </g>
    </g>
    <path id="Path_842" data-name="Path 842" d="M1154.634,1260.871q2.5,4.5,4.94,9.031c3.295,6.139,9.412,19.778-.382,23.147-4.934,1.7-7.756.038-11.018-3.557a207.812,207.812,0,0,1-31.2-45.2c-3.1-6.088-11.343-21.952-1.335-25.577a12.156,12.156,0,0,1,9.763.714,19.653,19.653,0,0,1,3.7,2.731c7.223,6.441,12.366,14.752,16.942,23.182C1148.875,1250.553,1151.77,1255.705,1154.634,1260.871Z" transform="translate(-827.499 -556.188)" fill="#6675ff"/>
    <path id="Path_843" data-name="Path 843" d="M1010.9,1566.6q1.293-.218,2.59-.42,6.306-.978,12.556-2.317a215.948,215.948,0,0,1,24.935-4.077q1.334-.126,2.671-.227c3.763-.284,7.705-.381,11.146,1.372s6.173,5.91,5.325,9.923a8.834,8.834,0,0,1-5.255,6.018,23.049,23.049,0,0,1-7.793,1.443l-25.708,1.735q-6.364.426-12.727.873c-4.052.282-8.165.849-12.227.852a8.264,8.264,0,0,1-5.078-1.429c-2-1.555-3.206-4.87-3.4-7.462a4.5,4.5,0,0,1,1.229-3.816,4.317,4.317,0,0,1,1.975-.71C1004.4,1567.766,1007.638,1567.149,1010.9,1566.6Z" transform="translate(-733.656 -839.899)" fill="#6675ff"/>
    <g id="Group_632" data-name="Group 632" transform="translate(123.031 675.934)">
      <rect id="Rectangle_377" data-name="Rectangle 377" width="40.633" height="7.955" transform="translate(80.397 53.808)" fill="#b8d1ce"/>
      <path id="Path_844" data-name="Path 844" d="M251.955,1356.1,241.7,1303.892a2.94,2.94,0,0,0-2.885-2.374H170.644a2.915,2.915,0,0,0-2.363,1.212l-.009-.009-3.148,3.722,2.793-.613,10.1,51.4a2.941,2.941,0,0,0,2.885,2.374H249.07A2.94,2.94,0,0,0,251.955,1356.1Z" transform="translate(-164.585 -1301.518)" fill="#b8d1ce"/>
      <path id="Path_845" data-name="Path 845" d="M175.132,1381.366H243.3a2.94,2.94,0,0,0,2.885-3.507l-10.255-52.207a2.94,2.94,0,0,0-2.885-2.374H164.877a2.94,2.94,0,0,0-2.885,3.507l10.255,52.207A2.94,2.94,0,0,0,175.132,1381.366Z" transform="translate(-161.936 -1319.603)" fill="#fff"/>
      <path id="Path_846" data-name="Path 846" d="M366.468,1456.175a7.96,7.96,0,0,0,7.515,6.376,5.111,5.111,0,0,0,5.147-6.376,8.05,8.05,0,0,0-7.515-6.376A5.156,5.156,0,0,0,366.468,1456.175Z" transform="translate(-331.829 -1424.749)" fill="#b8d1ce"/>
      <path id="Path_847" data-name="Path 847" d="M161.936,1337.656" transform="translate(-161.936 -1331.551)" fill="#3f91ac"/>
    </g>
    <path id="Path_848" data-name="Path 848" d="M844.715,1623.248c-2.026.418-3.609,2.2-5.625,2.793a6.921,6.921,0,0,1-4.361-.321c-1.271-.477-2.564-.732-3.869-1.15-1.017-.326-2.39-1.011-3.482-.784-2.863.6-5.719,2.634-8.314,3.957a3.019,3.019,0,0,1-1.866.482c-.644-.122-1.18-.9-.814-1.445-.747.7-1.735,2.093-2.94,1.552a1.007,1.007,0,0,1-.517-1.34,4.074,4.074,0,0,1-1.42,1.149,1.394,1.394,0,0,1-1.658-.386,1.647,1.647,0,0,1-.22-.829,6.258,6.258,0,0,1,.665-2.88c2.044-4.461,6.667-7.771,10.6-10.429a8.478,8.478,0,0,1,2.208-1.192,7.738,7.738,0,0,1,2.233-.247,44.51,44.51,0,0,1,14.381,2.324,6.224,6.224,0,0,0,3.1-.137,4.83,4.83,0,0,1,2.23-.065,3.846,3.846,0,0,1,1.924,1.557,7.222,7.222,0,0,1,1.487,4.489c-.082,1.2-.173,2.487-1.58,2.738-.57.1-1.158.039-1.734.1C845,1623.2,844.854,1623.219,844.715,1623.248Z" transform="translate(-577.172 -883.761)" fill="#f8a17a"/>
    <path id="Path_849" data-name="Path 849" d="M935.6,1096.29c2.98-.956,5.435-2.808,6.354-5.753.835-2.673-.481-5.679-.716-8.375a51.117,51.117,0,0,1-.084-7.772,33.653,33.653,0,0,0,.018-7.27c-.209-1.363-.957-1.13-2.336-1.672a12.023,12.023,0,0,0-4.424-.543c-3.068.007-11.064-.215-12.96,2.477a7.57,7.57,0,0,0-.98,4.262c-.05,1.776-.364,4.077-.655,6.555-.13,1.1-.05,2.2-.219,3.3a20.717,20.717,0,0,1-1.063,3.579c-1.543,4.445-.1,8.672,4.708,10.707A18.991,18.991,0,0,0,935.6,1096.29Z" transform="translate(-667.196 -428.944)" fill="#f8a17a"/>
    <path id="Path_850" data-name="Path 850" d="M945.456,1067.12c-.209-1.363-.957-1.13-2.336-1.672a12.024,12.024,0,0,0-4.424-.543c-3.068.007-11.064-.215-12.96,2.477a7.57,7.57,0,0,0-.98,4.262c-.05,1.776-.365,4.077-.656,6.555-.13,1.1-.049,2.2-.218,3.3a15.271,15.271,0,0,1-.766,2.736,16.256,16.256,0,0,0,9.434.587,21.525,21.525,0,0,0,12.839-9.376c.016-.352.026-.7.049-1.055A33.641,33.641,0,0,0,945.456,1067.12Z" transform="translate(-671.492 -428.944)" fill="#e5785c"/>
    <path id="Path_851" data-name="Path 851" d="M881,854.747a37.507,37.507,0,0,0-1.644-11.209c-4.547-13.922-21.914-17.361-32.372-7.368-11.662,11.144-7.2,37.79,5.085,47.15a13.782,13.782,0,0,0,11.736,2.312C875.872,882.4,881.074,867.543,881,854.747Z" transform="translate(-602.581 -234.083)" fill="#f8a17a"/>
    <path id="Path_852" data-name="Path 852" d="M896.286,843.538c-4.547-13.922-21.914-17.361-32.372-7.368a18.936,18.936,0,0,0-3.344,4.345,13.967,13.967,0,0,0,1.834,1.318,53.362,53.362,0,0,0,14.176,5.935c2.141.551,4.395,1,6.149,2.348a9.077,9.077,0,0,1,2.379,2.878,26.63,26.63,0,0,1,1.758,4.262,50.551,50.551,0,0,1,2,9.785,1.536,1.536,0,0,0,.357.95,1.28,1.28,0,0,0,.923.263c1.926-.049,2.855-1.9,4.354-2.874.9-.589,1.8-1.189,2.661-1.842a47.7,47.7,0,0,0,.771-8.791A37.508,37.508,0,0,0,896.286,843.538Z" transform="translate(-619.513 -234.083)" fill="#e5785c"/>
    <path id="Path_853" data-name="Path 853" d="M896.339,830.017a26.569,26.569,0,0,1,1.191,4.454,50.548,50.548,0,0,1,.714,9.961,1.534,1.534,0,0,0,.231.988,1.28,1.28,0,0,0,.881.38c1.916.2,3.076-1.51,4.69-2.286a25.744,25.744,0,0,0,4.825-2.764c4.163-3.263,3.212-8.647,3.08-13.434a29.31,29.31,0,0,0-.922-7.813,19.218,19.218,0,0,0-4.43-7.3,28.417,28.417,0,0,0-22.362-8.719,18.586,18.586,0,0,0-11.575,4.915c-2.5,2.53.547,5.967,2.609,7.605a53.359,53.359,0,0,0,13.288,7.721c2.052.823,4.228,1.564,5.793,3.125A9.076,9.076,0,0,1,896.339,830.017Z" transform="translate(-628.779 -211.646)" fill="#0b2d4e"/>
    <path id="Path_854" data-name="Path 854" d="M1048.811,973.111c5.343-2.921,6.987,4.476,6.068,8.158a11.748,11.748,0,0,1-1.924,4.254c-1.271,1.685-4.907,4.48-7,2.636-.951-.836-1.048-2.257-1.078-3.523C1044.8,981.242,1045.189,975.091,1048.811,973.111Z" transform="translate(-772.676 -352.103)" fill="#f8a17a"/>
    <g id="Group_637" data-name="Group 637" transform="translate(343.916 669.102)">
      <g id="Group_634" data-name="Group 634" transform="translate(4.716 0)">
        <g id="Group_633" data-name="Group 633">
          <path id="Path_855" data-name="Path 855" d="M1502.055,1298.507a6.171,6.171,0,0,0,.143-4.667,18.062,18.062,0,0,0-2.148-4.243,19.267,19.267,0,0,1-2.353-4.782,10.282,10.282,0,0,1,.116-5.725c1.12-3.608,3.413-6.267,4.993-8.986a12.908,12.908,0,0,0,1.7-4.321,7.436,7.436,0,0,0-.563-4.7,6.79,6.79,0,0,1,2.023,4.785,12.18,12.18,0,0,1-1.07,5.263c-1.371,3.276-3.427,5.936-4.227,8.811a7.725,7.725,0,0,0-.243,4.183,22.871,22.871,0,0,0,1.675,4.393,15.252,15.252,0,0,1,1.532,5.058A5.923,5.923,0,0,1,1502.055,1298.507Z" transform="translate(-1497.342 -1261.081)" fill="#fff"/>
        </g>
      </g>
      <g id="Group_636" data-name="Group 636" transform="translate(0 39.409)">
        <g id="Group_635" data-name="Group 635">
          <path id="Rectangle_378" data-name="Rectangle 378" d="M0,0H20.259a0,0,0,0,1,0,0V18.889a10.13,10.13,0,0,1-10.13,10.13h0A10.13,10.13,0,0,1,0,18.889V0A0,0,0,0,1,0,0Z" fill="#7a87ff"/>
          <path id="Path_856" data-name="Path 856" d="M1554.449,1533.209a8.926,8.926,0,1,0,8.8,8.926A8.862,8.862,0,0,0,1554.449,1533.209Zm0,14.668a5.743,5.743,0,1,1,5.659-5.743A5.7,5.7,0,0,1,1554.449,1547.877Z" transform="translate(-1532.776 -1526.646)" fill="#7a87ff"/>
          <path id="Path_857" data-name="Path 857" d="M1481.97,1520.683h0a1.1,1.1,0,0,1-1.1-1.1v-14.122a1.1,1.1,0,0,1,1.1-1.1h0a1.1,1.1,0,0,1,1.1,1.1v14.122A1.1,1.1,0,0,1,1481.97,1520.683Z" transform="translate(-1478.941 -1502.679)" fill="#fff" opacity="0.2"/>
          <path id="Path_858" data-name="Path 858" d="M1536.413,1494.359v23.888a5.131,5.131,0,0,1-5.131,5.131h4.679a5.131,5.131,0,0,0,5.131-5.131v-23.888Z" transform="translate(-1520.832 -1494.359)" fill="#6675ff"/>
        </g>
      </g>
    </g>
    <path id="Path_859" data-name="Path 859" d="M789.981,761.146c-2.295-6.427-6.895-11.6-4.248-18.812a10.8,10.8,0,0,1,10.048-7.085,11.934,11.934,0,0,1,6.086,1.552c2.2,1.26,3.627,3.317,6.185,4.006,6,1.616,12.208-2.957,17.941-4.022,5.676-1.055,11.714.808,14.49,6.226,1.1,2.138,1.561,4.606,3,6.529,2.405,3.21,7.084,4.308,8.988,7.839,3.108,5.765-3.278,14.092-6.528,18.521" transform="translate(-556.656 -154.978)" fill="none" stroke="#0b2d4e" stroke-miterlimit="10" stroke-width="4"/>
    <g id="Group_638" data-name="Group 638" transform="translate(254.783 635.558)">
      <path id="Path_860" data-name="Path 860" d="M945.765,1072.341a27.063,27.063,0,0,1-3.949-.291l.236-1.6a24.344,24.344,0,0,0,13.83-1.932,17.836,17.836,0,0,0,2.993-1.719,14.13,14.13,0,0,0,3.876-4.273l1.4.818a15.762,15.762,0,0,1-4.324,4.767,19.438,19.438,0,0,1-3.262,1.877A25.634,25.634,0,0,1,945.765,1072.341Z" transform="translate(-941.816 -1062.523)" fill="#8070f2"/>
    </g>
    <g id="Group_639" data-name="Group 639" transform="translate(249.183 641.024)">
      <path id="Path_861" data-name="Path 861" d="M909.584,1096.059c1.954-1.677,6.3-1.533,7.731.207a2.852,2.852,0,0,1-.431,4.019c-1.383,1.291-3.093,1.215-4.818.827C909.906,1100.625,907.229,1098.08,909.584,1096.059Z" transform="translate(-908.667 -1094.878)" fill="#8070f2"/>
    </g>
    <g id="Group_640" data-name="Group 640" transform="translate(248.406 590.105)">
      <path id="Path_862" data-name="Path 862" d="M904.072,794.912c.471.016.939.052,1.409.039.469.009.938-.014,1.406-.034q1.4-.088,2.8-.289c1.858-.254,3.7-.61,5.578-.858a28.151,28.151,0,0,1,5.684-.251q.715.043,1.427.151a13.716,13.716,0,0,1,1.415.28,10.7,10.7,0,0,1,2.7,1.064,8.466,8.466,0,0,1,1.2.848,8.749,8.749,0,0,1,1.026,1.052,7.932,7.932,0,0,1,.807,1.234,6.319,6.319,0,0,1,.522,1.388,5.368,5.368,0,0,1,.154,1.482,7.084,7.084,0,0,1-.212,1.451c-.107.464-.222.913-.293,1.359a4.981,4.981,0,0,0-.039,1.334,8.117,8.117,0,0,0,.81,2.6c.4.84.872,1.648,1.313,2.486a11.815,11.815,0,0,1,1.037,2.649,6,6,0,0,1,.172,1.414,4.445,4.445,0,0,1-.237,1.393,5.124,5.124,0,0,0-.107-2.761,11.571,11.571,0,0,0-1.155-2.535c-.469-.807-.98-1.6-1.419-2.449a8.381,8.381,0,0,1-.937-2.735,5.547,5.547,0,0,1,0-1.478c.066-.485.18-.949.276-1.4a6.493,6.493,0,0,0,.174-1.339,4.736,4.736,0,0,0-.159-1.312,6.059,6.059,0,0,0-.48-1.242,7.279,7.279,0,0,0-.741-1.119,8.1,8.1,0,0,0-.946-.959,7.932,7.932,0,0,0-1.1-.772,10.043,10.043,0,0,0-2.527-1.01,15.926,15.926,0,0,0-2.726-.434,29.563,29.563,0,0,0-5.575.136c-1.861.2-3.724.486-5.6.664-.94.085-1.885.132-2.828.14A20.82,20.82,0,0,1,904.072,794.912Z" transform="translate(-904.072 -793.468)" fill="#73b8d4"/>
    </g>
    <path id="Path_863" data-name="Path 863" d="M1046.336,962.831c-7.542,1.934-10.456,16.142-2.043,18.97,9.041,3.039,15.4-10.055,9.47-16.471A7.351,7.351,0,0,0,1046.336,962.831Z" transform="translate(-767.957 -343.928)" fill="#9b87ff"/>
    <path id="Path_864" data-name="Path 864" d="M1067.512,974.471c-5.206.836-8.413,11.9-3.048,14.941,5.765,3.271,11.176-6.578,7.784-12.252C1070.926,974.948,1069.188,974.2,1067.512,974.471Z" transform="translate(-786.661 -353.745)" fill="#8070f2"/>
    <g id="Group_641" data-name="Group 641" transform="translate(250.439 583.198)">
      <path id="Path_865" data-name="Path 865" d="M947.568,789.283l-2.011-.233c1.365-11.792.783-26.858-9.734-31.67-4.981-2.279-9.526-3.912-17.624-2.319a7.715,7.715,0,0,1-2.094-.6c7.323-3.577,15.184-1.385,20.56,1.075C948.288,760.857,949.01,776.824,947.568,789.283Z" transform="translate(-916.105 -752.583)" fill="#9b87ff"/>
    </g>
    <g id="Group_642" data-name="Group 642" transform="translate(302.774 557.161)">
      <rect id="Rectangle_379" data-name="Rectangle 379" width="83.002" height="50.401" rx="25.2" transform="translate(83.002 50.401) rotate(180)" fill="#ffc73c"/>
      <path id="Path_866" data-name="Path 866" d="M1290.559,861.394V838.233l18.14,9.894Z" transform="translate(-1279.634 -797.726)" fill="#ffc73c"/>
      <rect id="Rectangle_380" data-name="Rectangle 380" width="41.089" height="4.397" rx="2.199" transform="translate(12.643 23.073)" fill="#fff"/>
      <rect id="Rectangle_381" data-name="Rectangle 381" width="13.467" height="4.397" rx="2.199" transform="translate(56.892 23.073)" fill="#fff"/>
      <rect id="Rectangle_382" data-name="Rectangle 382" width="41.089" height="4.397" rx="2.199" transform="translate(70.359 17.484) rotate(180)" fill="#fff"/>
      <rect id="Rectangle_383" data-name="Rectangle 383" width="13.467" height="4.397" rx="2.199" transform="translate(26.11 17.484) rotate(180)" fill="#fff"/>
      <rect id="Rectangle_384" data-name="Rectangle 384" width="28.858" height="4.397" rx="2.199" transform="translate(12.643 32.202)" fill="#fff"/>
    </g>
    <g id="Group_649" data-name="Group 649" transform="translate(358.6 615.012)">
      <g id="Group_645" data-name="Group 645" transform="translate(0 0)">
        <path id="Path_867" data-name="Path 867" d="M1580.11,947.731c-1.859-.011-3.663-.25-4.937-2.073-2.5-3.579-6.314-6.793-10.593-3.153-2.467,2.1-.612,6.418-2.736,8.5-1.878,1.837-4.266,1.533-5.227,4.582-1.413,4.486,3.04,8.416,4.47,12.294,1.2,3.255-1.5,4.5-2.711,7.032a6.4,6.4,0,0,0,.564,5.919c1.8,3.3,5.777,5.95,4.855,10.218-.77,3.562-1.486,6.737,1.658,9.437,2.154,1.851,6.153,3.537,5.848,6.963-.108,1.212-.947,2.245-1.177,3.441-.364,1.891.861,3.732,2.284,5.03a48.612,48.612,0,0,1,8.505,9.455c1.036,1.588,5.184,5.173,3.526,7.344,3.013-3.946,6.2-7.773,8.936-11.921,2.252-3.412,5.647-8.4,3.336-12.6-.719-1.307-2.055-2.281-2.422-3.727-.661-2.611,1.9-5.032,2.858-7.254a9.326,9.326,0,0,0-2.239-10.157c-1.248-1.239-2.6-2.6-2.786-4.35-.2-1.91,1-3.69,1.54-5.452a27.167,27.167,0,0,0,1-5.037,10.482,10.482,0,0,0-.1-3.575c-.533-2.215-2.528-3.447-4-5.019-3.516-3.742-1.668-8.143-3.2-12.492C1585.972,947.222,1582.976,947.748,1580.11,947.731Z" transform="translate(-1556.345 -940.902)" fill="#3dc8e8"/>
        <g id="Group_644" data-name="Group 644" clip-path="url(#clip-path-2)">
          <g id="Group_643" data-name="Group 643" transform="translate(-3.236 -2.91)">
            <path id="Path_868" data-name="Path 868" d="M1627,1022.847a165.318,165.318,0,0,0-2.657-44.778c-2.637-14.057-6.1-28.161-11.344-41.487a127.673,127.673,0,0,0-5.892-12.908" transform="translate(-1595.299 -923.675)" fill="none" stroke="#26a8d1" stroke-miterlimit="10" stroke-width="5"/>
            <path id="Path_869" data-name="Path 869" d="M1537.192,1042.435A90.292,90.292,0,0,1,1558.03,1053a18.939,18.939,0,0,1,3.911,2.9" transform="translate(-1537.192 -1022.372)" fill="none" stroke="#26a8d1" stroke-miterlimit="10" stroke-width="5"/>
            <path id="Path_870" data-name="Path 870" d="M1589.308,1172.589a61.691,61.691,0,0,0-23.389-9.028" transform="translate(-1561.066 -1123.035)" fill="none" stroke="#26a8d1" stroke-miterlimit="10" stroke-width="5"/>
            <path id="Path_871" data-name="Path 871" d="M1607.283,1274.215a52.733,52.733,0,0,0-23.1-11.594" transform="translate(-1576.246 -1205.36)" fill="none" stroke="#26a8d1" stroke-miterlimit="10" stroke-width="5"/>
            <path id="Path_872" data-name="Path 872" d="M1681.528,1006.3a65.577,65.577,0,0,1,5.782-22.95" transform="translate(-1657.144 -973.269)" fill="none" stroke="#26a8d1" stroke-miterlimit="10" stroke-width="5"/>
            <path id="Path_873" data-name="Path 873" d="M1703.831,1120.528a57.891,57.891,0,0,1,14.089-18.826" transform="translate(-1675.679 -1071.627)" fill="none" stroke="#26a8d1" stroke-miterlimit="10" stroke-width="5"/>
            <path id="Path_874" data-name="Path 874" d="M1723.5,1251.956a21.7,21.7,0,0,1,2.391-6.305,38.872,38.872,0,0,1,4.74-6.273q1.874-2.129,3.811-4.2" transform="translate(-1692.028 -1182.552)" fill="none" stroke="#26a8d1" stroke-miterlimit="10" stroke-width="5"/>
          </g>
        </g>
      </g>
      <g id="Group_648" data-name="Group 648" transform="translate(25.094 30.701)">
        <path id="Path_876" data-name="Path 876" d="M1726.387,1126.032a3.979,3.979,0,0,0,3.868-.821c2.308-2.25,5.521-4.053,8.12-.821,1.5,1.864-.444,4.74.809,6.541,1.108,1.592,2.882,1.7,3.157,4.047.4,3.449-3.37,5.683-4.944,8.3-1.321,2.195.465,3.468.993,5.476a4.728,4.728,0,0,1-1.229,4.216c-1.759,2.142-5.014,3.516-4.936,6.74.065,2.691.145,5.093-2.508,6.616-1.819,1.044-4.953,1.714-5.206,4.241-.089.894.376,1.76.377,2.658a4.269,4.269,0,0,1-2.353,3.333,35.9,35.9,0,0,0-7.478,5.681c-.971,1.008-4.477,3.035-3.574,4.839-1.64-3.279-3.42-6.5-4.832-9.884-1.161-2.787-2.933-6.876-.675-9.6.7-.848,1.807-1.37,2.273-2.368.841-1.8-.685-3.914-1.069-5.657a6.887,6.887,0,0,1,3.03-7.058,5.765,5.765,0,0,0,2.623-2.77c.409-1.358-.213-2.815-.363-4.168a20.077,20.077,0,0,1-.025-3.792,7.731,7.731,0,0,1,.568-2.579c.693-1.533,2.311-2.151,3.6-3.086,3.068-2.228,2.337-5.676,4.053-8.618C1722.205,1124.851,1724.305,1125.647,1726.387,1126.032Z" transform="translate(-1704.887 -1122.634)" fill="#26a8d1"/>
        <g id="Group_647" data-name="Group 647" clip-path="url(#clip-path-3)">
          <g id="Group_646" data-name="Group 646" transform="translate(4.381 -1.564)">
            <path id="Path_877" data-name="Path 877" d="M1738.681,1182.558a122.083,122.083,0,0,1,8.126-32.113,168.346,168.346,0,0,1,13.971-28.523,94.259,94.259,0,0,1,6.06-8.547" transform="translate(-1737.353 -1113.375)" fill="none" stroke="#3dc8e8" stroke-miterlimit="10" stroke-width="5"/>
            <path id="Path_878" data-name="Path 878" d="M1842.151,1209.2a66.663,66.663,0,0,0-16.578,4.779,13.972,13.972,0,0,0-3.238,1.559" transform="translate(-1806.875 -1193.01)" fill="none" stroke="#3dc8e8" stroke-miterlimit="10" stroke-width="5"/>
            <path id="Path_879" data-name="Path 879" d="M1794.207,1296.323a45.554,45.554,0,0,1,18.215-3.311" transform="translate(-1783.499 -1262.652)" fill="none" stroke="#3dc8e8" stroke-miterlimit="10" stroke-width="5"/>
            <path id="Path_880" data-name="Path 880" d="M1766.39,1367.623a38.94,38.94,0,0,1,18.36-5.213" transform="translate(-1760.381 -1320.339)" fill="none" stroke="#3dc8e8" stroke-miterlimit="10" stroke-width="5"/>
            <path id="Path_881" data-name="Path 881" d="M1819.3,1159.073a48.428,48.428,0,0,0-1.018-17.448" transform="translate(-1803.508 -1136.853)" fill="none" stroke="#3dc8e8" stroke-miterlimit="10" stroke-width="5"/>
            <path id="Path_882" data-name="Path 882" d="M1757.674,1233.186a42.759,42.759,0,0,0-7.614-15.606" transform="translate(-1746.81 -1199.976)" fill="none" stroke="#3dc8e8" stroke-miterlimit="10" stroke-width="5"/>
            <path id="Path_883" data-name="Path 883" d="M1736.437,1327.94a16.02,16.02,0,0,0-.862-4.9,28.7,28.7,0,0,0-2.57-5.206q-1.065-1.8-2.183-3.575" transform="translate(-1730.822 -1280.318)" fill="none" stroke="#3dc8e8" stroke-miterlimit="10" stroke-width="5"/>
          </g>
        </g>
      </g>
      <path id="Path_885" data-name="Path 885" d="M1660.99,1500.272h27.585l-4.839,27.605h-17.906Z" transform="translate(-1643.311 -1405.773)" fill="#efb126"/>
      <rect id="Rectangle_385" data-name="Rectangle 385" width="34.339" height="7.749" transform="translate(48.64 94.499) rotate(180)" fill="#ffc73c"/>
      <path id="Path_886" data-name="Path 886" d="M1687.933,1503.933h-26.3l-.642-3.661h27.585Z" transform="translate(-1643.311 -1405.773)" fill="#231f20" opacity="0.1"/>
    </g>
    <path id="Path_887" data-name="Path 887" d="M412.8,1673.678H120.514a5.27,5.27,0,0,1-5.391-5.14h0a5.27,5.27,0,0,1,5.391-5.139H412.8a5.27,5.27,0,0,1,5.391,5.139h0A5.27,5.27,0,0,1,412.8,1673.678Z" transform="translate(0 -926.33)" fill="#dbcdfe"/>
    <g id="Group_650" data-name="Group 650" transform="translate(165.345 563.983)">
      <path id="Path_888" data-name="Path 888" d="M431.763,638.845H420.844a8.465,8.465,0,0,0-8.44,8.44h0a8.446,8.446,0,0,0,3.659,6.943v5.94l6.075-4.443h9.625a8.465,8.465,0,0,0,8.44-8.44h0A8.465,8.465,0,0,0,431.763,638.845Z" transform="translate(-412.404 -638.845)" fill="#b4bbfd"/>
      <circle id="Ellipse_27" data-name="Ellipse 27" cx="1.281" cy="1.281" r="1.281" transform="translate(6.244 9.394) rotate(-76.761)" fill="#fff"/>
      <circle id="Ellipse_28" data-name="Ellipse 28" cx="1.281" cy="1.281" r="1.281" transform="translate(12.088 8.44) rotate(-45)" fill="#fff"/>
      <circle id="Ellipse_29" data-name="Ellipse 29" cx="1.281" cy="1.281" r="1.281" transform="translate(18.204 8.44) rotate(-45)" fill="#fff"/>
    </g>
    <path id="Path_889" data-name="Path 889" d="M1247.469,1084.822c-1.683-2.881-5.933-4.328-10.04.473-4.107-4.8-8.357-3.354-10.041-.473-4.148,7.1,10.041,15.451,10.041,15.451S1251.617,1091.92,1247.469,1084.822Z" transform="translate(-923.73 -443.29)" fill="#b4bbfd"/>
    <g id="Group_651" data-name="Group 651" transform="translate(230.773 548.765)">
      <rect id="Rectangle_386" data-name="Rectangle 386" width="25.166" height="16.791" rx="8.395" transform="translate(0 0)" fill="#b4bbfd"/>
      <path id="Path_890" data-name="Path 890" d="M802.1,551.956l11.018,10.684a1.691,1.691,0,0,0,2.317,0l11.018-10.684" transform="translate(-801.691 -551.417)" fill="none" stroke="#fff" stroke-miterlimit="10" stroke-width="4"/>
      <line id="Line_82" data-name="Line 82" y1="6.944" x2="9.041" transform="translate(0.406 9.305)" fill="none" stroke="#fff" stroke-miterlimit="10" stroke-width="4"/>
      <line id="Line_83" data-name="Line 83" x1="9.041" y1="6.944" transform="translate(15.719 9.305)" fill="none" stroke="#fff" stroke-miterlimit="10" stroke-width="4"/>
    </g>
    <g id="Group_656" data-name="Group 656" transform="translate(184.067 610.887)">
      <g id="Group_652" data-name="Group 652" transform="translate(0 0)">
        <rect id="Rectangle_387" data-name="Rectangle 387" width="29.07" height="20.192" rx="10.096" fill="#b4bbfd"/>
      </g>
      <g id="Group_653" data-name="Group 653" transform="translate(9.438 19.697)">
        <path id="Path_891" data-name="Path 891" d="M584.189,1039.955l5.1-6.874H579.092Z" transform="translate(-579.092 -1033.08)" fill="#b4bbfd"/>
      </g>
      <g id="Group_654" data-name="Group 654" transform="translate(19.233 6.742)">
        <path id="Path_892" data-name="Path 892" d="M640.02,962.345h-1.258V958.9l.012-.566.02-.619q-.313.313-.435.411l-.684.549-.607-.757,1.917-1.526h1.034Z" transform="translate(-637.069 -956.395)" fill="#fff"/>
      </g>
      <g id="Group_655" data-name="Group 655" transform="translate(5.546 6.542)">
        <path id="Path_893" data-name="Path 893" d="M563.367,955.209h-4.126a3.2,3.2,0,0,0-3.189,3.189h0a3.192,3.192,0,0,0,1.383,2.624v2.245l2.3-1.679h3.637a3.2,3.2,0,0,0,3.189-3.189h0A3.2,3.2,0,0,0,563.367,955.209Z" transform="translate(-556.052 -955.209)" fill="#fff"/>
      </g>
    </g>
  </g>
</svg>
