<svg xmlns="http://www.w3.org/2000/svg" width="724" height="16.996" viewBox="0 0 724 16.996">
  <g id="Group_747" data-name="Group 747" transform="translate(-314.5 -684.628)">
    <line id="Line_42" data-name="Line 42" x2="722" transform="translate(315.5 693.126)" fill="none" stroke="#8b5db3" stroke-linecap="round" stroke-width="2" stroke-dasharray="13"/>
    <path id="Icon_ionic-ios-arrow-down" data-name="Icon ionic-ios-arrow-down" d="M14.689,18.035,21.115,11.6a1.209,1.209,0,0,1,1.715,0,1.225,1.225,0,0,1,0,1.72L15.549,20.61a1.212,1.212,0,0,1-1.675.035L6.542,13.329a1.215,1.215,0,1,1,1.715-1.72Z" transform="translate(466.703 707.811) rotate(-90)" fill="#8b5db3"/>
    <path id="Icon_ionic-ios-arrow-down-2" data-name="Icon ionic-ios-arrow-down" d="M14.689,18.035,21.115,11.6a1.209,1.209,0,0,1,1.715,0,1.225,1.225,0,0,1,0,1.72L15.549,20.61a1.212,1.212,0,0,1-1.675.035L6.542,13.329a1.215,1.215,0,1,1,1.715-1.72Z" transform="translate(854.703 707.811) rotate(-90)" fill="#8b5db3"/>
  </g>
</svg>
